<svg width="21" height="21" viewBox="0 0 21 21" fill="none" xmlns="http://www.w3.org/2000/svg">
<rect x="0.5" y="0.5" width="20" height="20" rx="4" fill="url(#paint0_linear_1062_79958)" fill-opacity="0.7"/>
<path d="M9.71342 16.4999C9.67221 16.4999 9.63145 16.4913 9.5937 16.4748C9.55595 16.4583 9.52202 16.4342 9.49406 16.4039L3.57937 10.0059C3.53994 9.96325 3.5138 9.91003 3.50415 9.85275C3.4945 9.79547 3.50176 9.73662 3.52504 9.6834C3.54831 9.63018 3.5866 9.58491 3.63521 9.55311C3.68382 9.52131 3.74065 9.50438 3.79873 9.50438H6.64574C6.68848 9.50438 6.73073 9.51356 6.76963 9.53128C6.80853 9.549 6.84317 9.57486 6.87123 9.60712L8.84794 11.8813C9.06157 11.4246 9.47512 10.6642 10.2008 9.73772C11.2737 8.368 13.2692 6.35355 16.6833 4.53506C16.7493 4.49992 16.8261 4.4908 16.8985 4.5095C16.9709 4.5282 17.0336 4.57336 17.0743 4.63607C17.115 4.69877 17.1307 4.77446 17.1184 4.84819C17.106 4.92193 17.0664 4.98834 17.0075 5.03431C16.9944 5.0445 15.6781 6.08113 14.1631 7.9799C12.7688 9.72724 10.9153 12.5844 10.0033 16.273C9.9873 16.3378 9.95004 16.3953 9.89748 16.4365C9.84491 16.4776 9.78009 16.5 9.71333 16.5L9.71342 16.4999Z" fill="white"/>
<defs>
<linearGradient id="paint0_linear_1062_79958" x1="20.5" y1="10.5" x2="0.5" y2="10.5" gradientUnits="userSpaceOnUse">
<stop stop-color="#B731FF"/>
<stop offset="1" stop-color="#1D2CDF"/>
</linearGradient>
</defs>
</svg>
